<svg width="54" height="54" xmlns="http://www.w3.org/2000/svg" xmlns:xlink="http://www.w3.org/1999/xlink" xml:space="preserve" overflow="hidden"><defs><clipPath id="clip0"><rect x="55" y="332" width="54" height="54"/></clipPath></defs><g clip-path="url(#clip0)" transform="translate(-55 -332)"><path d="M98.875 368.9 91.1744 356.626C91.0366 356.401 90.7913 356.265 90.5275 356.266 90.2626 356.266 90.0161 356.402 89.875 356.626L87.625 360.237 92.4512 368.045C92.8597 368.663 92.9475 369.439 92.6875 370.132L98.1438 370.132C98.5905 370.154 98.9709 369.81 98.9931 369.363 99.0013 369.201 98.9601 369.039 98.875 368.9Z"/><path d="M90.4937 368.973 78.2594 349.066C78.1024 348.863 77.8576 348.748 77.6012 348.757L77.5 348.757 77.3988 348.757C77.1424 348.748 76.8976 348.863 76.7406 349.066L64.5062 368.973C64.3329 369.216 64.3091 369.534 64.4444 369.8 64.5808 370.041 64.8513 370.173 65.125 370.132L89.875 370.132C90.1487 370.173 90.4192 370.041 90.5556 369.8 90.6909 369.534 90.6671 369.216 90.4937 368.973ZM79.5475 358.392 77.6012 360.125 75.655 358.392 72.4375 360.339 77.5 352.132 82.4275 360.125Z"/><path d="M71.875 350C71.875 350.932 71.1195 351.688 70.1875 351.688 69.2555 351.688 68.5 350.932 68.5 350 68.5 349.068 69.2555 348.312 70.1875 348.312 71.1195 348.312 71.875 349.068 71.875 350Z"/><path d="M62.875 373.625 62.875 345.5 101.125 345.5 101.125 373.625ZM104.5 377 104.5 342.125 59.5 342.125 59.5 377Z"/></g></svg>